<svg xmlns="http://www.w3.org/2000/svg" viewBox="0 0 280 48" fill="none">
  <!-- Rocket icon -->
  <g transform="translate(6, 4) rotate(-30, 16, 20)">
    <!-- Rocket body -->
    <path d="M14 8 C14 8 10 16 10 24 L14 28 L18 28 L22 24 C22 16 18 8 18 8 C18 5 14 5 14 8Z" fill="#f97316"/>
    <!-- Rocket nose -->
    <ellipse cx="16" cy="8" rx="3" ry="4" fill="#ea580c"/>
    <!-- Rocket window -->
    <circle cx="16" cy="16" r="2.5" fill="white"/>
    <!-- Rocket fins -->
    <path d="M10 24 L6 28 L10 27Z" fill="#ea580c"/>
    <path d="M22 24 L26 28 L22 27Z" fill="#ea580c"/>
    <!-- Flame -->
    <path d="M13 28 L16 35 L19 28" fill="#fbbf24"/>
    <path d="M14 28 L16 33 L18 28" fill="#f97316"/>
  </g>
  <!-- Wordmark -->
  <text x="44" y="36" font-family="system-ui, -apple-system, 'Segoe UI', sans-serif" font-size="32" font-weight="800" letter-spacing="-1">
    <tspan fill="#f97316">ZeroTo</tspan><tspan fill="#0f172a">WP</tspan>
  </text>
</svg>
